<svg width="20" height="20" viewBox="0 0 20 20" fill="none" xmlns="http://www.w3.org/2000/svg">
<g id="Apple" clip-path="url(#clip0_217_753)">
<path id="Vector" d="M14.8947 0.916809H5.10566C2.79232 0.916809 0.916992 2.79214 0.916992 5.10548V14.8945C0.916992 17.2079 2.79232 19.0832 5.10566 19.0832H14.8947C17.2081 19.0832 19.0834 17.2079 19.0834 14.8945V5.10548C19.0834 2.79214 17.2081 0.916809 14.8947 0.916809Z" fill="url(#paint0_linear_217_753)"/>
<path id="Vector_2" d="M12.9296 4.50079C13.6192 4.50356 14.2798 4.77875 14.7675 5.26641C15.2551 5.75406 15.5303 6.41466 15.5331 7.1043V12.8957C15.5303 13.5854 15.2551 14.246 14.7675 14.7336C14.2798 15.2213 13.6192 15.4964 12.9296 15.4992H7.07021C6.38057 15.4964 5.71997 15.2213 5.23232 14.7336C4.74467 14.246 4.46948 13.5854 4.4667 12.8957V7.1043C4.46948 6.41466 4.74467 5.75406 5.23232 5.26641C5.71997 4.77875 6.38057 4.50356 7.07021 4.50079H12.9296ZM12.9296 3.28985H7.07021C4.97217 3.28985 3.25537 5.0086 3.25537 7.10469V12.8957C3.25537 14.9938 4.97412 16.7106 7.07021 16.7106H12.9296C15.0276 16.7106 16.7444 14.9918 16.7444 12.8957V7.1043C16.7444 5.00626 15.0276 3.28946 12.9296 3.28946V3.28985Z" fill="white"/>
<path id="Vector_3" d="M9.99981 7.73944C10.4469 7.73944 10.884 7.87202 11.2557 8.12041C11.6274 8.3688 11.9172 8.72185 12.0883 9.13491C12.2594 9.54797 12.3041 10.0025 12.2169 10.441C12.1297 10.8795 11.9144 11.2823 11.5983 11.5984C11.2821 11.9146 10.8793 12.1299 10.4408 12.2171C10.0023 12.3043 9.54779 12.2596 9.13473 12.0885C8.72167 11.9174 8.36862 11.6276 8.12023 11.2559C7.87184 10.8841 7.73926 10.4471 7.73926 9.99999C7.73998 9.40068 7.97838 8.82612 8.40216 8.40234C8.82594 7.97856 9.40049 7.74016 9.99981 7.73944ZM9.99981 6.5285C9.31321 6.5285 8.64204 6.7321 8.07115 7.11355C7.50027 7.49501 7.05532 8.03718 6.79257 8.67151C6.52982 9.30584 6.46108 10.0038 6.59503 10.6772C6.72897 11.3506 7.0596 11.9692 7.5451 12.4547C8.03059 12.9402 8.64915 13.2708 9.32255 13.4048C9.99596 13.5387 10.694 13.47 11.3283 13.2072C11.9626 12.9445 12.5048 12.4995 12.8862 11.9286C13.2677 11.3578 13.4713 10.6866 13.4713 9.99999C13.4713 9.07929 13.1055 8.19631 12.4545 7.54528C11.8035 6.89425 10.9205 6.5285 9.99981 6.5285Z" fill="white"/>
<path id="Vector_4" d="M13.5472 7.19922C14.0017 7.19922 14.3702 6.83073 14.3702 6.37618C14.3702 5.92162 14.0017 5.55313 13.5472 5.55313C13.0926 5.55313 12.7241 5.92162 12.7241 6.37618C12.7241 6.83073 13.0926 7.19922 13.5472 7.19922Z" fill="white"/>
</g>
<defs>
<linearGradient id="paint0_linear_217_753" x1="12.8232" y1="19.8457" x2="7.17715" y2="0.154308" gradientUnits="userSpaceOnUse">
<stop stop-color="#FFDB73"/>
<stop offset="0.08" stop-color="#FDAD4E"/>
<stop offset="0.15" stop-color="#FB832E"/>
<stop offset="0.19" stop-color="#FA7321"/>
<stop offset="0.23" stop-color="#F6692F"/>
<stop offset="0.37" stop-color="#E84A5A"/>
<stop offset="0.48" stop-color="#E03675"/>
<stop offset="0.55" stop-color="#DD2F7F"/>
<stop offset="0.68" stop-color="#B43D97"/>
<stop offset="0.97" stop-color="#4D60D4"/>
<stop offset="1" stop-color="#4264DB"/>
</linearGradient>
<clipPath id="clip0_217_753">
<rect width="20" height="20" fill="white"/>
</clipPath>
</defs>
</svg>
