<svg width="20" height="22" viewBox="0 0 20 22" fill="none" xmlns="http://www.w3.org/2000/svg">
<g id="Frame">
<path id="Vector" d="M18.3332 15.04V17.7067C18.3341 17.9542 18.2866 18.1993 18.1936 18.4261C18.1006 18.6529 17.9643 18.8565 17.7933 19.0239C17.6222 19.1913 17.4203 19.3187 17.2005 19.398C16.9806 19.4773 16.7477 19.5067 16.5165 19.4845C13.9522 19.1873 11.489 18.2526 9.32486 16.7556C7.31139 15.3908 5.60431 13.57 4.32486 11.4222C2.91651 9.10331 2.04007 6.46312 1.76653 3.71557C1.7457 3.46977 1.77309 3.22203 1.84695 2.98813C1.9208 2.75423 2.03951 2.5393 2.1955 2.35701C2.3515 2.17473 2.54137 2.02909 2.75302 1.92937C2.96468 1.82965 3.19348 1.77803 3.42486 1.7778H5.92486C6.32928 1.77355 6.72136 1.92631 7.028 2.2076C7.33464 2.4889 7.53493 2.87953 7.59153 3.30669C7.69705 4.16008 7.89274 4.998 8.17486 5.80446C8.28698 6.12262 8.31125 6.46839 8.24478 6.8008C8.17832 7.13322 8.02392 7.43834 7.79986 7.68002L6.74153 8.80891C7.92783 11.0343 9.65524 12.8769 11.7415 14.1422L12.7999 13.0134C13.0264 12.7744 13.3125 12.6097 13.6241 12.5388C13.9358 12.4679 14.2599 12.4938 14.5582 12.6134C15.3143 12.9143 16.0998 13.123 16.8999 13.2356C17.3047 13.2965 17.6744 13.514 17.9386 13.8467C18.2029 14.1794 18.3433 14.6041 18.3332 15.04Z" stroke="black" stroke-width="2" stroke-linecap="round" stroke-linejoin="round"/>
</g>
</svg>
