<svg width="20" height="20" viewBox="0 0 20 20" fill="none" xmlns="http://www.w3.org/2000/svg">
<g id="Layer_1" clip-path="url(#clip0_217_763)">
<path id="Vector" d="M9.9873 19.995C15.5102 19.995 19.9873 15.5178 19.9873 9.995C19.9873 4.47215 15.5102 -0.00500488 9.9873 -0.00500488C4.46446 -0.00500488 -0.0126953 4.47215 -0.0126953 9.995C-0.0126953 15.5178 4.46446 19.995 9.9873 19.995Z" fill="#00BFF8"/>
<path id="Vector_2" d="M9.98746 19.995C15.51 19.995 19.9875 15.5175 19.9875 9.995C19.9875 7.33 18.945 4.9175 17.25 3.125L3.02246 17.1725C4.82496 18.9175 7.28246 19.995 9.98746 19.995Z" fill="#2CB1DF"/>
<path id="Vector_3" d="M11.8699 9.39C11.3399 8.88 10.6999 8.615 9.97236 8.55C9.06486 8.47 8.24236 8.6675 7.53486 9.27C7.47986 9.3175 7.42236 9.36 7.35736 9.415C7.35486 9.3725 7.35236 9.345 7.35236 9.3175C7.35236 8.7 7.35486 8.0825 7.35236 7.465C7.35236 7.215 7.35736 6.96 7.33236 6.7125C7.28736 6.235 7.01736 5.76 6.36236 5.7C5.91236 5.66 5.50986 5.8425 5.30986 6.2925C5.20486 6.5275 5.17236 6.775 5.17236 7.0275C5.17236 9.8175 5.17236 12.6075 5.17486 15.395C5.17486 15.5275 5.18986 15.6625 5.21736 15.7925C5.31986 16.2925 5.69486 16.6175 6.18736 16.6375C6.70986 16.66 7.13236 16.3675 7.28236 15.88C7.30236 15.8125 7.31986 15.7425 7.34236 15.6625C7.39486 15.7175 7.44236 15.7675 7.48986 15.8125C8.00736 16.315 8.62736 16.575 9.34236 16.6275C10.0699 16.68 10.7474 16.5325 11.3599 16.1275C11.9974 15.705 12.4049 15.1075 12.6699 14.4025C12.8949 13.8 12.9824 13.1725 12.9849 12.5325C12.9874 11.9575 12.9249 11.39 12.7449 10.84C12.5624 10.2875 12.2874 9.7925 11.8699 9.39ZM10.4849 13.765C10.2949 14.2175 9.99486 14.5775 9.51236 14.7225C8.85236 14.9225 8.02486 14.665 7.65486 13.825C7.49236 13.4575 7.44486 13.0675 7.44236 12.67C7.43736 12.1675 7.49986 11.68 7.73236 11.2275C7.95236 10.8 8.27236 10.49 8.74986 10.3725C9.44236 10.2025 10.0649 10.495 10.3899 11.1375C10.5924 11.54 10.6874 11.99 10.6849 12.57C10.6849 12.9775 10.6474 13.3825 10.4849 13.765Z" fill="white"/>
<path id="Vector_4" d="M12.6648 14.4C12.8898 13.7975 12.9773 13.17 12.9798 12.53C12.9823 11.955 12.9198 11.3875 12.7398 10.8375C12.5598 10.2875 12.2873 9.79251 11.8673 9.39001C11.6973 9.22751 11.5173 9.08751 11.3248 8.97501L9.7873 10.4925C10.0348 10.63 10.2423 10.8475 10.3898 11.1375C10.5923 11.54 10.6873 11.99 10.6848 12.57C10.6823 12.98 10.6448 13.385 10.4848 13.765C10.2948 14.2175 9.9948 14.5775 9.5123 14.7225C8.8523 14.9225 8.0248 14.665 7.6548 13.825C7.5123 13.5 7.4573 13.155 7.4448 12.805L5.1748 15.0475C5.1748 15.1625 5.1748 15.2775 5.1748 15.3925C5.1748 15.525 5.1898 15.66 5.2173 15.79C5.3198 16.29 5.6948 16.615 6.1873 16.635C6.7098 16.6575 7.1323 16.365 7.2823 15.8775C7.3023 15.81 7.3198 15.74 7.3423 15.66C7.3948 15.715 7.4423 15.765 7.4898 15.81C8.0073 16.3125 8.6273 16.5725 9.3423 16.625C10.0698 16.6775 10.7473 16.53 11.3598 16.125C11.9948 15.705 12.4023 15.1075 12.6648 14.4Z" fill="#F1F2F2"/>
<path id="Vector_5" d="M14.6699 4.49751C14.4124 3.61001 13.3799 3.33501 12.7199 3.98251C12.5849 4.11251 12.4849 4.27751 12.3799 4.41251C12.2699 4.27251 12.1674 4.10251 12.0299 3.96501C11.5524 3.48751 10.8199 3.49751 10.3799 3.97751C10.1774 4.19751 10.0774 4.46751 10.0374 4.76001C9.97741 5.20251 10.0824 5.59251 10.4299 5.88751C10.6199 6.04501 10.8274 6.18501 11.0399 6.31001C11.3724 6.50751 11.7074 6.69751 11.9774 6.97751C12.1274 7.13251 12.2624 7.30751 12.3974 7.46751C12.4274 7.42501 12.4599 7.36251 12.5024 7.30751C12.7824 6.94501 13.1274 6.65751 13.5149 6.41751C13.7249 6.28751 13.9424 6.16251 14.1449 6.02251C14.4299 5.82501 14.6524 5.57751 14.7199 5.22251C14.7649 4.97751 14.7399 4.73501 14.6699 4.49751Z" fill="white"/>
</g>
<defs>
<clipPath id="clip0_217_763">
<rect width="20" height="20" fill="white"/>
</clipPath>
</defs>
</svg>
