<svg width="20" height="20" viewBox="0 0 20 20" fill="none" xmlns="http://www.w3.org/2000/svg">
<g id="Layer_1">
<g id="Group">
<path id="Vector" d="M19.7938 5.73688C19.7938 5.73688 19.5987 4.26625 18.9994 3.61875C18.2388 2.77 17.3869 2.765 16.9963 2.71688C14.1981 2.5 10.0013 2.5 10.0013 2.5H9.99188C9.99188 2.5 5.795 2.5 2.9975 2.71688C2.60687 2.765 1.75563 2.77 0.994375 3.61875C0.395625 4.26625 0.2 5.73688 0.2 5.73688C0.2 5.73688 0 7.4625 0 9.18813V10.8056C0 12.5325 0.2 14.2575 0.2 14.2575C0.2 14.2575 0.395 15.7275 0.994375 16.3737C1.75563 17.2225 2.75375 17.1969 3.19875 17.2856C4.79813 17.4494 9.99687 17.5 9.99687 17.5C9.99687 17.5 14.1981 17.4925 16.9963 17.2781C17.3869 17.2281 18.2388 17.2231 18.9994 16.3744C19.5981 15.7281 19.7938 14.2581 19.7938 14.2581C19.7938 14.2581 19.9937 12.5325 19.9937 10.8063V9.18875C19.9937 7.4625 19.7938 5.73688 19.7938 5.73688Z" fill="#E02F2F"/>
<path id="Vector_2" d="M7.5 6.25V13.75L13.75 10L7.5 6.25Z" fill="white"/>
</g>
</g>
</svg>
