<svg width="26" height="30" viewBox="0 0 26 30" fill="none" xmlns="http://www.w3.org/2000/svg">
<g id="message" clip-path="url(#clip0_217_1090)">
<path id="Vector" d="M24.1694 5.646H1.83989H1.64624H1.17627H0.852539V24.3131H25.1583V5.646H24.3176H24.1694ZM23.1972 6.81272L13.8072 18.0807C13.379 18.5945 12.6317 18.5945 12.2036 18.0807L2.81211 6.81272H23.1972ZM1.82471 7.27748L8.13755 14.8518L1.82471 22.4272V7.27748ZM2.60039 23.1462L8.82544 15.6772L11.5162 18.9056C11.9135 19.383 12.4428 19.6462 13.0054 19.6462C13.5679 19.6462 14.0972 19.383 14.4946 18.9056L17.1853 15.6767L23.4099 23.1462H2.60039ZM24.1861 22.4278L17.8732 14.8518L24.186 7.27584L24.1861 22.4278Z" fill="#393939"/>
</g>
<defs>
<clipPath id="clip0_217_1090">
<rect width="25" height="30" fill="white" transform="translate(0.5)"/>
</clipPath>
</defs>
</svg>
