<svg width="25" height="24" viewBox="0 0 25 24" fill="none" xmlns="http://www.w3.org/2000/svg">
<g id="person">
<path id="Ellipse 132 (Stroke)" fill-rule="evenodd" clip-rule="evenodd" d="M12.5 10.5C14.433 10.5 16 8.933 16 7C16 5.067 14.433 3.5 12.5 3.5C10.567 3.5 9 5.067 9 7C9 8.933 10.567 10.5 12.5 10.5ZM12.5 12C15.2614 12 17.5 9.76142 17.5 7C17.5 4.23858 15.2614 2 12.5 2C9.73858 2 7.5 4.23858 7.5 7C7.5 9.76142 9.73858 12 12.5 12Z" fill="#393939"/>
<path id="Vector 631 (Stroke)" fill-rule="evenodd" clip-rule="evenodd" d="M9.5 15.75C7.15279 15.75 5.25 17.6528 5.25 20V21C5.25 21.4142 4.91421 21.75 4.5 21.75C4.08579 21.75 3.75 21.4142 3.75 21V20C3.75 16.8244 6.32436 14.25 9.5 14.25H15.5C18.6756 14.25 21.25 16.8244 21.25 20V21C21.25 21.4142 20.9142 21.75 20.5 21.75C20.0858 21.75 19.75 21.4142 19.75 21V20C19.75 17.6528 17.8472 15.75 15.5 15.75H9.5Z" fill="#393939"/>
</g>
</svg>
