<svg width="25" height="24" viewBox="0 0 25 24" fill="none" xmlns="http://www.w3.org/2000/svg">
<g id="search">
<path id="Union" fill-rule="evenodd" clip-rule="evenodd" d="M18.3723 16.8116C19.6996 15.2436 20.5 13.2153 20.5 11C20.5 6.02944 16.4706 2 11.5 2C6.52944 2 2.5 6.02944 2.5 11C2.5 15.9706 6.52944 20 11.5 20C13.7153 20 15.7436 19.1996 17.3116 17.8723L19.9697 20.5303C20.2626 20.8232 20.7374 20.8232 21.0303 20.5303C21.3232 20.2374 21.3232 19.7626 21.0303 19.4697L18.3723 16.8116ZM19 11C19 15.1421 15.6421 18.5 11.5 18.5C7.35786 18.5 4 15.1421 4 11C4 6.85786 7.35786 3.5 11.5 3.5C15.6421 3.5 19 6.85786 19 11Z" fill="#393939"/>
</g>
</svg>
