<svg width="21" height="19" viewBox="0 0 21 19" fill="none" xmlns="http://www.w3.org/2000/svg">
<path id="Union" fill-rule="evenodd" clip-rule="evenodd" d="M4.20207 4.99939L8.60067 0.784064C9.66437 -0.235312 11.3425 -0.235314 12.4062 0.784063L16.8048 4.99939H19.3504C19.959 4.99939 20.4264 5.53838 20.3404 6.14081L18.8714 16.4237C18.6603 17.9016 17.3945 18.9994 15.9015 18.9994H5.10532C3.61236 18.9994 2.3466 17.9016 2.13547 16.4237L0.666488 6.14081C0.580427 5.53838 1.04789 4.99939 1.65644 4.99939H4.20207ZM9.63853 1.86705C10.122 1.40369 10.8848 1.40369 11.3683 1.86705L14.6368 4.99939H6.37L9.63853 1.86705ZM2.23294 6.49939L3.62039 16.2115C3.72596 16.9505 4.35884 17.4994 5.10532 17.4994H15.9015C16.648 17.4994 17.2809 16.9505 17.3865 16.2115L18.7739 6.49939H2.23294Z" fill="#393939"/>
</svg>
